<mxfile host="65bd71144e" modified="2021-02-03T06:34:20.975Z" agent="5.0 (Macintosh; Intel Mac OS X 10_15_7) AppleWebKit/537.36 (KHTML, like Gecko) Code/1.52.1 Chrome/83.0.4103.122 Electron/9.3.5 Safari/537.36" version="13.10.0" etag="RYm463AEjNnaDFB6fraM" type="embed">
    <diagram id="2wkTOjlNoHobahHw1_Vd" name="Page-1">
        <mxGraphModel dx="589" dy="345" grid="1" gridSize="10" guides="1" tooltips="1" connect="1" arrows="1" fold="1" page="1" pageScale="1" pageWidth="827" pageHeight="1169" background="#ffffff" math="0" shadow="0">
            <root>
                <mxCell id="0"/>
                <mxCell id="1" parent="0"/>
                <mxCell id="2" value="ViewSet/Controller" style="rounded=1;whiteSpace=wrap;html=1;fillColor=none;strokeColor=#000000;fontColor=#000000;" vertex="1" parent="1">
                    <mxGeometry x="200" y="200" width="120" height="60" as="geometry"/>
                </mxCell>
                <mxCell id="3" value="UserService" style="rounded=1;whiteSpace=wrap;html=1;fillColor=none;strokeColor=#000000;fontColor=#000000;" vertex="1" parent="1">
                    <mxGeometry x="200" y="280" width="120" height="60" as="geometry"/>
                </mxCell>
                <mxCell id="4" value="Serializer" style="rounded=1;whiteSpace=wrap;fillColor=none;strokeColor=#000000;fontColor=#000000;" vertex="1" parent="1">
                    <mxGeometry x="70" y="200" width="120" height="60" as="geometry"/>
                </mxCell>
                <mxCell id="5" value="UserRepository" style="rounded=1;whiteSpace=wrap;fillColor=none;strokeColor=#000000;fontColor=#000000;" vertex="1" parent="1">
                    <mxGeometry x="200" y="370" width="120" height="60" as="geometry"/>
                </mxCell>
                <mxCell id="6" value="UserCacheRepository" style="rounded=1;whiteSpace=wrap;html=1;fillColor=none;strokeColor=#000000;fontColor=#000000;" vertex="1" parent="1">
                    <mxGeometry x="280" y="450" width="120" height="60" as="geometry"/>
                </mxCell>
                <mxCell id="7" value="UserDBRepository" style="rounded=1;whiteSpace=wrap;html=1;fillColor=none;strokeColor=#000000;fontColor=#000000;" vertex="1" parent="1">
                    <mxGeometry x="120" y="450" width="120" height="60" as="geometry"/>
                </mxCell>
                <mxCell id="8" value="RedisService" style="rounded=1;whiteSpace=wrap;html=1;fillColor=none;strokeColor=#000000;fontColor=#000000;" vertex="1" parent="1">
                    <mxGeometry x="280" y="530" width="120" height="60" as="geometry"/>
                </mxCell>
                <mxCell id="9" value="UserModel" style="rounded=1;whiteSpace=wrap;html=1;fillColor=none;strokeColor=#000000;fontColor=#000000;" vertex="1" parent="1">
                    <mxGeometry x="120" y="530" width="120" height="60" as="geometry"/>
                </mxCell>
                <mxCell id="10" value="http://127.0.0.1/api/users/login/" style="text;html=1;align=center;verticalAlign=middle;resizable=0;points=[];autosize=1;fontColor=#000000;" vertex="1" parent="1">
                    <mxGeometry x="70" y="50" width="180" height="20" as="geometry"/>
                </mxCell>
                <mxCell id="11" value="{&lt;br&gt;&amp;nbsp; &amp;nbsp; &quot;username&quot;: &quot;ryan&quot;,&lt;br&gt;&amp;nbsp; &amp;nbsp;&amp;nbsp;&quot;password&quot;: &quot;ryanpassword&quot;&lt;br&gt;}" style="text;html=1;align=left;verticalAlign=middle;resizable=0;points=[];autosize=1;fontColor=#000000;" vertex="1" parent="1">
                    <mxGeometry x="280" y="30" width="180" height="60" as="geometry"/>
                </mxCell>
                <mxCell id="12" value="url" style="text;html=1;align=center;verticalAlign=middle;resizable=0;points=[];autosize=1;fontColor=#000000;" vertex="1" parent="1">
                    <mxGeometry x="145" y="30" width="30" height="20" as="geometry"/>
                </mxCell>
                <mxCell id="13" value="data" style="text;html=1;align=center;verticalAlign=middle;resizable=0;points=[];autosize=1;fontColor=#000000;" vertex="1" parent="1">
                    <mxGeometry x="345" y="10" width="40" height="20" as="geometry"/>
                </mxCell>
                <mxCell id="15" value="urls.py" style="rounded=1;whiteSpace=wrap;html=1;fillColor=none;strokeColor=#000000;fontColor=#000000;" vertex="1" parent="1">
                    <mxGeometry x="200" y="110" width="120" height="60" as="geometry"/>
                </mxCell>
                <mxCell id="16" value="根據url path導向到指定ViewSet(例如 : UserViewSet)" style="text;html=1;align=center;verticalAlign=middle;resizable=0;points=[];autosize=1;fontColor=#000000;" vertex="1" parent="1">
                    <mxGeometry x="330" y="130" width="290" height="20" as="geometry"/>
                </mxCell>
                <mxCell id="18" value="進行資料驗證, 轉換格式(Serializer)&lt;br&gt;並轉交指定Service&lt;br&gt;(ex : UserService.login(data.username, data.password)" style="text;html=1;align=left;verticalAlign=middle;resizable=0;points=[];autosize=1;fontColor=#000000;" vertex="1" parent="1">
                    <mxGeometry x="330" y="200" width="310" height="50" as="geometry"/>
                </mxCell>
                <mxCell id="19" value="操作資料相關(DB, Cache)" style="text;html=1;align=left;verticalAlign=middle;resizable=0;points=[];autosize=1;fontColor=#000000;" vertex="1" parent="1">
                    <mxGeometry x="330" y="390" width="150" height="20" as="geometry"/>
                </mxCell>
                <mxCell id="20" value="業務邏輯相關" style="text;html=1;align=left;verticalAlign=middle;resizable=0;points=[];autosize=1;fontColor=#000000;" vertex="1" parent="1">
                    <mxGeometry x="330" y="300" width="90" height="20" as="geometry"/>
                </mxCell>
            </root>
        </mxGraphModel>
    </diagram>
</mxfile>